# xmcd
#
# Track frame offsets:
#	150
#	18210
#	37332
#	60887
#	77144
#	95216
#	114311
#	137834
#
# Disc length: 2055 seconds
#
# Revision: 1
# Processed by: cddbd v1.5.1PL2 Copyright (c) Steve Scherf et al.
# Submitted via: audiograbber 1.83.01
#
DISCID=64080508
DTITLE=Various Artist - Sm9168
DYEAR=1900
DGENRE=Country
TTITLE0=Rogers, Kenny - Buy Me A Rose
TTITLE1=Lone Star - Amazed
TTITLE2=McGraw, Tim - My Best Friend
TTITLE3=Strait, George - Best Day, The
TTITLE4=Rogers, Kenny - Buy Me A Rose
TTITLE5=Lone Star - Amazed
TTITLE6=McGraw, Tim - My Best Friend
TTITLE7=Strait, George - Best Day, The
EXTD=
EXTT0=
EXTT1=
EXTT2=
EXTT3=
EXTT4=
EXTT5=
EXTT6=
EXTT7=
PLAYORDER=
